<svg xmlns="http://www.w3.org/2000/svg" viewBox="0 0 23 23"><path d="M1 1h7v7h-7zM15 1h7v7h-7zM2 2v5h5v-5zM9 2h1v1h-1zM12 2h1v1h-1zM16 2v5h5v-5zM3 3h3v3h-3zM10 3h2v1h-1v1h-1zM13 3h1v1h-1zM17 3h3v3h-3zM12 4h1v1h-1zM9 5h1v1h-1zM11 5h1v3h-1zM13 5h1v4h-1v1h-1v1h-2v1h-1v-1h-1v-1h3v-1h1v-1h1zM9 7h1v1h-1zM1 9h1v2h1v-2h1v2h1v-2h1v1h1v1h-1v3h-1v-1h-3v-1h-1zM7 9h1v1h-1zM17 9h1v1h-1zM20 9h1v1h1v6h-3v-1h-1v-1h2v-2h-3v-1h1v-1h1v1h1zM15 10h1v1h-1zM7 11h1v1h-1zM13 11h1v1h-1zM8 12h1v1h-1zM10 12h1v2h-1v1h-1v-2h1zM15 12h1v2h-1zM1 13h1v1h-1zM7 13h1v1h-1zM13 13h1v1h-1zM17 13h1v1h-1zM11 14h2v2h1v-2h1v1h1v-1h1v2h1v1h-1v2h-2v-1h-1v-1h-1v1h-1v-1h-1v-1h1v-1h-1zM1 15h7v7h-7zM10 15h1v1h-1zM2 16v5h5v-5zM15 16v1h1v-1zM3 17h3v3h-3zM9 17h2v4h-1v-1h-1v-1h1v-1h-1zM20 17h2v1h-1v1h-1zM18 18h1v1h1v1h-2v1h1v1h-2v-1h-1v1h-1v-2h2v-1h1zM13 19h1v1h-1zM21 19h1v1h-1zM20 20h1v1h1v1h-2zM9 21h1v1h-1zM11 21h1v1h-1zM13 21h1v1h-1z"/></svg>